<?xml version="1.0" encoding="utf-8" standalone="no"?>
<!DOCTYPE svg PUBLIC "-//W3C//DTD SVG 1.1//EN"
  "http://www.w3.org/Graphics/SVG/1.1/DTD/svg11.dtd">
<svg xmlns:xlink="http://www.w3.org/1999/xlink" width="720pt" height="432pt" viewBox="0 0 720 432" xmlns="http://www.w3.org/2000/svg" version="1.1">
 <metadata>
  <rdf:RDF xmlns:dc="http://purl.org/dc/elements/1.1/" xmlns:cc="http://creativecommons.org/ns#" xmlns:rdf="http://www.w3.org/1999/02/22-rdf-syntax-ns#">
   <cc:Work>
    <dc:type rdf:resource="http://purl.org/dc/dcmitype/StillImage"/>
    <dc:date>2024-09-30T15:25:18.263593</dc:date>
    <dc:format>image/svg+xml</dc:format>
    <dc:creator>
     <cc:Agent>
      <dc:title>Matplotlib v3.7.1, https://matplotlib.org/</dc:title>
     </cc:Agent>
    </dc:creator>
   </cc:Work>
  </rdf:RDF>
 </metadata>
 <defs>
  <style type="text/css">*{stroke-linejoin: round; stroke-linecap: butt}</style>
 </defs>
 <g id="figure_1">
  <g id="patch_1">
   <path d="M 0 432 
L 720 432 
L 720 0 
L 0 0 
z
" style="fill: #ffffff"/>
  </g>
  <g id="axes_1">
   <g id="patch_2">
    <path d="M 56.33 378.28 
L 709.2 378.28 
L 709.2 11.736 
L 56.33 11.736 
z
" style="fill: #ffffff"/>
   </g>
   <g id="patch_3">
    <path d="M 86.005909 348.290036 
L 101.903718 348.290036 
L 101.903718 347.623593 
L 86.005909 347.623593 
z
" clip-path="url(#p7e8a2520f5)" style="fill: #1f77b4"/>
   </g>
   <g id="patch_4">
    <path d="M 191.991299 348.290036 
L 207.889107 348.290036 
L 207.889107 347.623593 
L 191.991299 347.623593 
z
" clip-path="url(#p7e8a2520f5)" style="fill: #1f77b4"/>
   </g>
   <g id="patch_5">
    <path d="M 297.976688 348.290036 
L 313.874497 348.290036 
L 313.874497 347.623593 
L 297.976688 347.623593 
z
" clip-path="url(#p7e8a2520f5)" style="fill: #1f77b4"/>
   </g>
   <g id="patch_6">
    <path d="M 403.962078 348.290036 
L 419.859886 348.290036 
L 419.859886 347.623593 
L 403.962078 347.623593 
z
" clip-path="url(#p7e8a2520f5)" style="fill: #1f77b4"/>
   </g>
   <g id="patch_7">
    <path d="M 509.947468 348.290036 
L 525.845276 348.290036 
L 525.845276 347.623593 
L 509.947468 347.623593 
z
" clip-path="url(#p7e8a2520f5)" style="fill: #1f77b4"/>
   </g>
   <g id="patch_8">
    <path d="M 615.932857 348.290036 
L 631.830666 348.290036 
L 631.830666 347.623593 
L 615.932857 347.623593 
z
" clip-path="url(#p7e8a2520f5)" style="fill: #1f77b4"/>
   </g>
   <g id="patch_9">
    <path d="M 101.903718 348.290036 
L 117.801526 348.290036 
L 117.801526 334.961164 
L 101.903718 334.961164 
z
" clip-path="url(#p7e8a2520f5)" style="fill: #ff7f0e"/>
   </g>
   <g id="patch_10">
    <path d="M 207.889107 348.290036 
L 223.786916 348.290036 
L 223.786916 281.645673 
L 207.889107 281.645673 
z
" clip-path="url(#p7e8a2520f5)" style="fill: #ff7f0e"/>
   </g>
   <g id="patch_11">
    <path d="M 313.874497 348.290036 
L 329.772305 348.290036 
L 329.772305 347.623593 
L 313.874497 347.623593 
z
" clip-path="url(#p7e8a2520f5)" style="fill: #ff7f0e"/>
   </g>
   <g id="patch_12">
    <path d="M 419.859886 348.290036 
L 435.757695 348.290036 
L 435.757695 321.632291 
L 419.859886 321.632291 
z
" clip-path="url(#p7e8a2520f5)" style="fill: #ff7f0e"/>
   </g>
   <g id="patch_13">
    <path d="M 525.845276 348.290036 
L 541.743084 348.290036 
L 541.743084 308.303418 
L 525.845276 308.303418 
z
" clip-path="url(#p7e8a2520f5)" style="fill: #ff7f0e"/>
   </g>
   <g id="patch_14">
    <path d="M 631.830666 348.290036 
L 647.728474 348.290036 
L 647.728474 361.618909 
L 631.830666 361.618909 
z
" clip-path="url(#p7e8a2520f5)" style="fill: #ff7f0e"/>
   </g>
   <g id="patch_15">
    <path d="M 117.801526 348.290036 
L 133.699334 348.290036 
L 133.699334 328.296727 
L 117.801526 328.296727 
z
" clip-path="url(#p7e8a2520f5)" style="fill: #2ca02c"/>
   </g>
   <g id="patch_16">
    <path d="M 223.786916 348.290036 
L 239.684724 348.290036 
L 239.684724 201.672436 
L 223.786916 201.672436 
z
" clip-path="url(#p7e8a2520f5)" style="fill: #2ca02c"/>
   </g>
   <g id="patch_17">
    <path d="M 329.772305 348.290036 
L 345.670114 348.290036 
L 345.670114 294.974545 
L 329.772305 294.974545 
z
" clip-path="url(#p7e8a2520f5)" style="fill: #2ca02c"/>
   </g>
   <g id="patch_18">
    <path d="M 435.757695 348.290036 
L 451.655503 348.290036 
L 451.655503 254.987927 
L 435.757695 254.987927 
z
" clip-path="url(#p7e8a2520f5)" style="fill: #2ca02c"/>
   </g>
   <g id="patch_19">
    <path d="M 541.743084 348.290036 
L 557.640893 348.290036 
L 557.640893 95.041455 
L 541.743084 95.041455 
z
" clip-path="url(#p7e8a2520f5)" style="fill: #2ca02c"/>
   </g>
   <g id="patch_20">
    <path d="M 647.728474 348.290036 
L 663.626282 348.290036 
L 663.626282 161.685818 
L 647.728474 161.685818 
z
" clip-path="url(#p7e8a2520f5)" style="fill: #2ca02c"/>
   </g>
   <g id="patch_21">
    <path d="M 133.699334 348.290036 
L 149.597143 348.290036 
L 149.597143 334.961164 
L 133.699334 334.961164 
z
" clip-path="url(#p7e8a2520f5)" style="fill: #d62728"/>
   </g>
   <g id="patch_22">
    <path d="M 239.684724 348.290036 
L 255.582532 348.290036 
L 255.582532 241.659055 
L 239.684724 241.659055 
z
" clip-path="url(#p7e8a2520f5)" style="fill: #d62728"/>
   </g>
   <g id="patch_23">
    <path d="M 345.670114 348.290036 
L 361.567922 348.290036 
L 361.567922 281.645673 
L 345.670114 281.645673 
z
" clip-path="url(#p7e8a2520f5)" style="fill: #d62728"/>
   </g>
   <g id="patch_24">
    <path d="M 451.655503 348.290036 
L 467.553312 348.290036 
L 467.553312 95.041455 
L 451.655503 95.041455 
z
" clip-path="url(#p7e8a2520f5)" style="fill: #d62728"/>
   </g>
   <g id="patch_25">
    <path d="M 557.640893 348.290036 
L 573.538701 348.290036 
L 573.538701 28.397091 
L 557.640893 28.397091 
z
" clip-path="url(#p7e8a2520f5)" style="fill: #d62728"/>
   </g>
   <g id="patch_26">
    <path d="M 663.626282 348.290036 
L 679.524091 348.290036 
L 679.524091 81.712582 
L 663.626282 81.712582 
z
" clip-path="url(#p7e8a2520f5)" style="fill: #d62728"/>
   </g>
   <g id="matplotlib.axis_1">
    <g id="xtick_1">
     <g id="text_1">
      <!-- art -->
      <g transform="translate(110.421057 392.878438) scale(0.1 -0.1)">
       <defs>
        <path id="DejaVuSerif-61" d="M 2547 1044 
L 2547 1747 
L 1806 1747 
Q 1378 1747 1168 1562 
Q 959 1378 959 997 
Q 959 650 1171 447 
Q 1384 244 1747 244 
Q 2106 244 2326 466 
Q 2547 688 2547 1044 
z
M 3122 2075 
L 3122 331 
L 3634 331 
L 3634 0 
L 2547 0 
L 2547 359 
Q 2356 128 2106 18 
Q 1856 -91 1522 -91 
Q 969 -91 644 203 
Q 319 497 319 997 
Q 319 1513 691 1797 
Q 1063 2081 1741 2081 
L 2547 2081 
L 2547 2309 
Q 2547 2688 2317 2895 
Q 2088 3103 1672 3103 
Q 1328 3103 1125 2947 
Q 922 2791 872 2484 
L 575 2484 
L 575 3156 
Q 875 3284 1158 3348 
Q 1441 3413 1709 3413 
Q 2400 3413 2761 3070 
Q 3122 2728 3122 2075 
z
" transform="scale(0.015625)"/>
        <path id="DejaVuSerif-72" d="M 3059 3328 
L 3059 2497 
L 2728 2497 
Q 2713 2744 2591 2866 
Q 2469 2988 2234 2988 
Q 1809 2988 1582 2694 
Q 1356 2400 1356 1850 
L 1356 331 
L 2022 331 
L 2022 0 
L 263 0 
L 263 331 
L 781 331 
L 781 2994 
L 231 2994 
L 231 3322 
L 1356 3322 
L 1356 2731 
Q 1525 3078 1790 3245 
Q 2056 3413 2438 3413 
Q 2578 3413 2733 3391 
Q 2888 3369 3059 3328 
z
" transform="scale(0.015625)"/>
        <path id="DejaVuSerif-74" d="M 691 2988 
L 184 2988 
L 184 3322 
L 691 3322 
L 691 4353 
L 1269 4353 
L 1269 3322 
L 2350 3322 
L 2350 2988 
L 1269 2988 
L 1269 878 
Q 1269 456 1350 337 
Q 1431 219 1650 219 
Q 1875 219 1978 351 
Q 2081 484 2088 781 
L 2522 781 
Q 2497 328 2275 118 
Q 2053 -91 1600 -91 
Q 1103 -91 897 129 
Q 691 350 691 878 
L 691 2988 
z
" transform="scale(0.015625)"/>
       </defs>
       <use xlink:href="#DejaVuSerif-61"/>
       <use xlink:href="#DejaVuSerif-72" x="59.619141"/>
       <use xlink:href="#DejaVuSerif-74" x="107.421875"/>
      </g>
     </g>
    </g>
    <g id="xtick_2">
     <g id="text_2">
      <!-- finance -->
      <g transform="translate(205.155666 392.878438) scale(0.1 -0.1)">
       <defs>
        <path id="DejaVuSerif-66" d="M 2753 4078 
L 2450 4078 
Q 2447 4313 2317 4434 
Q 2188 4556 1941 4556 
Q 1619 4556 1487 4379 
Q 1356 4203 1356 3750 
L 1356 3322 
L 2284 3322 
L 2284 2988 
L 1356 2988 
L 1356 331 
L 2094 331 
L 2094 0 
L 231 0 
L 231 331 
L 781 331 
L 781 2988 
L 231 2988 
L 231 3322 
L 781 3322 
L 781 3738 
Q 781 4294 1070 4578 
Q 1359 4863 1919 4863 
Q 2128 4863 2337 4825 
Q 2547 4788 2753 4709 
L 2753 4078 
z
" transform="scale(0.015625)"/>
        <path id="DejaVuSerif-69" d="M 622 4353 
Q 622 4497 726 4603 
Q 831 4709 978 4709 
Q 1122 4709 1226 4603 
Q 1331 4497 1331 4353 
Q 1331 4206 1228 4103 
Q 1125 4000 978 4000 
Q 831 4000 726 4103 
Q 622 4206 622 4353 
z
M 1356 331 
L 1900 331 
L 1900 0 
L 231 0 
L 231 331 
L 781 331 
L 781 2988 
L 231 2988 
L 231 3322 
L 1356 3322 
L 1356 331 
z
" transform="scale(0.015625)"/>
        <path id="DejaVuSerif-6e" d="M 263 0 
L 263 331 
L 781 331 
L 781 2988 
L 231 2988 
L 231 3322 
L 1356 3322 
L 1356 2731 
Q 1516 3069 1770 3241 
Q 2025 3413 2363 3413 
Q 2913 3413 3172 3097 
Q 3431 2781 3431 2113 
L 3431 331 
L 3944 331 
L 3944 0 
L 2356 0 
L 2356 331 
L 2853 331 
L 2853 1931 
Q 2853 2541 2703 2767 
Q 2553 2994 2175 2994 
Q 1775 2994 1565 2701 
Q 1356 2409 1356 1850 
L 1356 331 
L 1856 331 
L 1856 0 
L 263 0 
z
" transform="scale(0.015625)"/>
        <path id="DejaVuSerif-63" d="M 3291 997 
Q 3169 466 2822 187 
Q 2475 -91 1925 -91 
Q 1200 -91 759 389 
Q 319 869 319 1663 
Q 319 2459 759 2936 
Q 1200 3413 1925 3413 
Q 2241 3413 2553 3339 
Q 2866 3266 3181 3116 
L 3181 2266 
L 2847 2266 
Q 2781 2703 2561 2903 
Q 2341 3103 1931 3103 
Q 1466 3103 1228 2742 
Q 991 2381 991 1663 
Q 991 944 1227 581 
Q 1463 219 1931 219 
Q 2303 219 2525 412 
Q 2747 606 2828 997 
L 3291 997 
z
" transform="scale(0.015625)"/>
        <path id="DejaVuSerif-65" d="M 3469 1600 
L 991 1600 
L 991 1575 
Q 991 903 1244 561 
Q 1497 219 1991 219 
Q 2369 219 2611 417 
Q 2853 616 2950 1006 
L 3413 1006 
Q 3275 459 2904 184 
Q 2534 -91 1931 -91 
Q 1203 -91 761 389 
Q 319 869 319 1663 
Q 319 2450 753 2931 
Q 1188 3413 1894 3413 
Q 2647 3413 3050 2948 
Q 3453 2484 3469 1600 
z
M 2791 1931 
Q 2772 2513 2545 2808 
Q 2319 3103 1894 3103 
Q 1497 3103 1269 2806 
Q 1041 2509 991 1931 
L 2791 1931 
z
" transform="scale(0.015625)"/>
       </defs>
       <use xlink:href="#DejaVuSerif-66"/>
       <use xlink:href="#DejaVuSerif-69" x="37.011719"/>
       <use xlink:href="#DejaVuSerif-6e" x="68.994141"/>
       <use xlink:href="#DejaVuSerif-61" x="133.398438"/>
       <use xlink:href="#DejaVuSerif-6e" x="193.017578"/>
       <use xlink:href="#DejaVuSerif-63" x="257.421875"/>
       <use xlink:href="#DejaVuSerif-65" x="313.427734"/>
      </g>
     </g>
    </g>
    <g id="xtick_3">
     <g id="text_3">
      <!-- music -->
      <g transform="translate(314.845743 392.878438) scale(0.1 -0.1)">
       <defs>
        <path id="DejaVuSerif-6d" d="M 3316 2675 
Q 3481 3041 3739 3227 
Q 3997 3413 4341 3413 
Q 4863 3413 5119 3089 
Q 5375 2766 5375 2113 
L 5375 331 
L 5894 331 
L 5894 0 
L 4300 0 
L 4300 331 
L 4800 331 
L 4800 2047 
Q 4800 2556 4650 2772 
Q 4500 2988 4153 2988 
Q 3769 2988 3567 2697 
Q 3366 2406 3366 1850 
L 3366 331 
L 3866 331 
L 3866 0 
L 2291 0 
L 2291 331 
L 2791 331 
L 2791 2069 
Q 2791 2566 2641 2777 
Q 2491 2988 2144 2988 
Q 1759 2988 1557 2697 
Q 1356 2406 1356 1850 
L 1356 331 
L 1856 331 
L 1856 0 
L 263 0 
L 263 331 
L 781 331 
L 781 2994 
L 231 2994 
L 231 3322 
L 1356 3322 
L 1356 2731 
Q 1516 3063 1762 3238 
Q 2009 3413 2322 3413 
Q 2709 3413 2968 3220 
Q 3228 3028 3316 2675 
z
" transform="scale(0.015625)"/>
        <path id="DejaVuSerif-75" d="M 2266 3322 
L 3341 3322 
L 3341 331 
L 3884 331 
L 3884 0 
L 2766 0 
L 2766 588 
Q 2606 256 2353 82 
Q 2100 -91 1766 -91 
Q 1213 -91 952 223 
Q 691 538 691 1209 
L 691 2988 
L 172 2988 
L 172 3322 
L 1269 3322 
L 1269 1388 
Q 1269 781 1417 556 
Q 1566 331 1947 331 
Q 2347 331 2556 625 
Q 2766 919 2766 1478 
L 2766 2988 
L 2266 2988 
L 2266 3322 
z
" transform="scale(0.015625)"/>
        <path id="DejaVuSerif-73" d="M 359 184 
L 359 959 
L 691 959 
Q 703 588 923 403 
Q 1144 219 1575 219 
Q 1963 219 2166 364 
Q 2369 509 2369 788 
Q 2369 1006 2220 1140 
Q 2072 1275 1594 1428 
L 1178 1569 
Q 750 1706 558 1912 
Q 366 2119 366 2438 
Q 366 2894 700 3153 
Q 1034 3413 1625 3413 
Q 1888 3413 2178 3344 
Q 2469 3275 2778 3144 
L 2778 2419 
L 2447 2419 
Q 2434 2741 2221 2922 
Q 2009 3103 1644 3103 
Q 1281 3103 1095 2975 
Q 909 2847 909 2591 
Q 909 2381 1050 2254 
Q 1191 2128 1613 1997 
L 2069 1856 
Q 2541 1709 2748 1489 
Q 2956 1269 2956 922 
Q 2956 450 2595 179 
Q 2234 -91 1600 -91 
Q 1278 -91 972 -22 
Q 666 47 359 184 
z
" transform="scale(0.015625)"/>
       </defs>
       <use xlink:href="#DejaVuSerif-6d"/>
       <use xlink:href="#DejaVuSerif-75" x="94.824219"/>
       <use xlink:href="#DejaVuSerif-73" x="159.228516"/>
       <use xlink:href="#DejaVuSerif-69" x="210.546875"/>
       <use xlink:href="#DejaVuSerif-63" x="242.529297"/>
      </g>
     </g>
    </g>
    <g id="xtick_4">
     <g id="text_4">
      <!-- politics -->
      <g transform="translate(417.374101 392.878438) scale(0.1 -0.1)">
       <defs>
        <path id="DejaVuSerif-70" d="M 1313 1825 
L 1313 1497 
Q 1313 897 1542 583 
Q 1772 269 2209 269 
Q 2650 269 2876 622 
Q 3103 975 3103 1663 
Q 3103 2353 2876 2703 
Q 2650 3053 2209 3053 
Q 1772 3053 1542 2737 
Q 1313 2422 1313 1825 
z
M 738 2988 
L 184 2988 
L 184 3322 
L 1313 3322 
L 1313 2803 
Q 1481 3116 1742 3264 
Q 2003 3413 2388 3413 
Q 3000 3413 3387 2928 
Q 3775 2444 3775 1663 
Q 3775 881 3387 395 
Q 3000 -91 2388 -91 
Q 2003 -91 1742 57 
Q 1481 206 1313 519 
L 1313 -997 
L 1856 -997 
L 1856 -1331 
L 184 -1331 
L 184 -997 
L 738 -997 
L 738 2988 
z
" transform="scale(0.015625)"/>
        <path id="DejaVuSerif-6f" d="M 1925 219 
Q 2388 219 2623 584 
Q 2859 950 2859 1663 
Q 2859 2375 2623 2739 
Q 2388 3103 1925 3103 
Q 1463 3103 1227 2739 
Q 991 2375 991 1663 
Q 991 950 1228 584 
Q 1466 219 1925 219 
z
M 1925 -91 
Q 1200 -91 759 389 
Q 319 869 319 1663 
Q 319 2456 758 2934 
Q 1197 3413 1925 3413 
Q 2653 3413 3092 2934 
Q 3531 2456 3531 1663 
Q 3531 869 3092 389 
Q 2653 -91 1925 -91 
z
" transform="scale(0.015625)"/>
        <path id="DejaVuSerif-6c" d="M 1313 331 
L 1856 331 
L 1856 0 
L 184 0 
L 184 331 
L 738 331 
L 738 4531 
L 184 4531 
L 184 4863 
L 1313 4863 
L 1313 331 
z
" transform="scale(0.015625)"/>
       </defs>
       <use xlink:href="#DejaVuSerif-70"/>
       <use xlink:href="#DejaVuSerif-6f" x="64.013672"/>
       <use xlink:href="#DejaVuSerif-6c" x="124.21875"/>
       <use xlink:href="#DejaVuSerif-69" x="156.201172"/>
       <use xlink:href="#DejaVuSerif-74" x="188.183594"/>
       <use xlink:href="#DejaVuSerif-69" x="228.369141"/>
       <use xlink:href="#DejaVuSerif-63" x="260.351562"/>
       <use xlink:href="#DejaVuSerif-73" x="316.357422"/>
      </g>
     </g>
    </g>
    <g id="xtick_5">
     <g id="text_5">
      <!-- science -->
      <g transform="translate(522.839178 392.878438) scale(0.1 -0.1)">
       <use xlink:href="#DejaVuSerif-73"/>
       <use xlink:href="#DejaVuSerif-63" x="51.318359"/>
       <use xlink:href="#DejaVuSerif-69" x="107.324219"/>
       <use xlink:href="#DejaVuSerif-65" x="139.306641"/>
       <use xlink:href="#DejaVuSerif-6e" x="198.486328"/>
       <use xlink:href="#DejaVuSerif-63" x="262.890625"/>
       <use xlink:href="#DejaVuSerif-65" x="318.896484"/>
      </g>
     </g>
    </g>
    <g id="xtick_6">
     <g id="text_6">
      <!-- weddings -->
      <g transform="translate(623.501912 392.878438) scale(0.1 -0.1)">
       <defs>
        <path id="DejaVuSerif-77" d="M 3072 3322 
L 3922 728 
L 4672 2988 
L 4191 2988 
L 4191 3322 
L 5394 3322 
L 5394 2988 
L 5025 2988 
L 4038 0 
L 3559 0 
L 2741 2484 
L 1919 0 
L 1459 0 
L 475 2988 
L 103 2988 
L 103 3322 
L 1606 3322 
L 1606 2988 
L 1069 2988 
L 1813 728 
L 2669 3322 
L 3072 3322 
z
" transform="scale(0.015625)"/>
        <path id="DejaVuSerif-64" d="M 3359 331 
L 3909 331 
L 3909 0 
L 2784 0 
L 2784 519 
Q 2616 206 2355 57 
Q 2094 -91 1709 -91 
Q 1097 -91 708 395 
Q 319 881 319 1663 
Q 319 2444 706 2928 
Q 1094 3413 1709 3413 
Q 2094 3413 2355 3264 
Q 2616 3116 2784 2803 
L 2784 4531 
L 2241 4531 
L 2241 4863 
L 3359 4863 
L 3359 331 
z
M 2784 1497 
L 2784 1825 
Q 2784 2422 2554 2737 
Q 2325 3053 1888 3053 
Q 1444 3053 1217 2703 
Q 991 2353 991 1663 
Q 991 975 1217 622 
Q 1444 269 1888 269 
Q 2325 269 2554 583 
Q 2784 897 2784 1497 
z
" transform="scale(0.015625)"/>
        <path id="DejaVuSerif-67" d="M 3359 2988 
L 3359 72 
Q 3359 -644 2965 -1033 
Q 2572 -1422 1844 -1422 
Q 1516 -1422 1216 -1362 
Q 916 -1303 641 -1184 
L 641 -488 
L 941 -488 
Q 997 -813 1206 -963 
Q 1416 -1113 1806 -1113 
Q 2313 -1113 2548 -827 
Q 2784 -541 2784 72 
L 2784 519 
Q 2616 206 2355 57 
Q 2094 -91 1709 -91 
Q 1097 -91 708 395 
Q 319 881 319 1663 
Q 319 2444 706 2928 
Q 1094 3413 1709 3413 
Q 2094 3413 2355 3264 
Q 2616 3116 2784 2803 
L 2784 3322 
L 3909 3322 
L 3909 2988 
L 3359 2988 
z
M 2784 1825 
Q 2784 2422 2554 2737 
Q 2325 3053 1888 3053 
Q 1444 3053 1217 2703 
Q 991 2353 991 1663 
Q 991 975 1217 622 
Q 1444 269 1888 269 
Q 2325 269 2554 583 
Q 2784 897 2784 1497 
L 2784 1825 
z
" transform="scale(0.015625)"/>
       </defs>
       <use xlink:href="#DejaVuSerif-77"/>
       <use xlink:href="#DejaVuSerif-65" x="85.595703"/>
       <use xlink:href="#DejaVuSerif-64" x="144.775391"/>
       <use xlink:href="#DejaVuSerif-64" x="208.789062"/>
       <use xlink:href="#DejaVuSerif-69" x="272.802734"/>
       <use xlink:href="#DejaVuSerif-6e" x="304.785156"/>
       <use xlink:href="#DejaVuSerif-67" x="369.189453"/>
       <use xlink:href="#DejaVuSerif-73" x="433.203125"/>
      </g>
     </g>
    </g>
    <g id="text_7">
     <!-- Topic -->
     <g transform="translate(361.0725 417.257812) scale(0.16 -0.16)">
      <defs>
       <path id="DejaVuSerif-54" d="M 1222 0 
L 1222 331 
L 1819 331 
L 1819 4294 
L 447 4294 
L 447 3566 
L 63 3566 
L 63 4666 
L 4206 4666 
L 4206 3566 
L 3822 3566 
L 3822 4294 
L 2450 4294 
L 2450 331 
L 3047 331 
L 3047 0 
L 1222 0 
z
" transform="scale(0.015625)"/>
      </defs>
      <use xlink:href="#DejaVuSerif-54"/>
      <use xlink:href="#DejaVuSerif-6f" x="58.949219"/>
      <use xlink:href="#DejaVuSerif-70" x="119.154297"/>
      <use xlink:href="#DejaVuSerif-69" x="183.167969"/>
      <use xlink:href="#DejaVuSerif-63" x="215.150391"/>
     </g>
    </g>
   </g>
   <g id="matplotlib.axis_2">
    <g id="ytick_1">
     <g id="text_8">
      <!-- 0 -->
      <g transform="translate(42.9675 352.089255) scale(0.1 -0.1)">
       <defs>
        <path id="DejaVuSerif-30" d="M 2034 219 
Q 2513 219 2750 744 
Q 2988 1269 2988 2328 
Q 2988 3391 2750 3916 
Q 2513 4441 2034 4441 
Q 1556 4441 1318 3916 
Q 1081 3391 1081 2328 
Q 1081 1269 1318 744 
Q 1556 219 2034 219 
z
M 2034 -91 
Q 1275 -91 848 546 
Q 422 1184 422 2328 
Q 422 3475 848 4112 
Q 1275 4750 2034 4750 
Q 2797 4750 3222 4112 
Q 3647 3475 3647 2328 
Q 3647 1184 3222 546 
Q 2797 -91 2034 -91 
z
" transform="scale(0.015625)"/>
       </defs>
       <use xlink:href="#DejaVuSerif-30"/>
      </g>
     </g>
    </g>
    <g id="ytick_2">
     <g id="text_9">
      <!-- 5 -->
      <g transform="translate(42.9675 285.444891) scale(0.1 -0.1)">
       <defs>
        <path id="DejaVuSerif-35" d="M 3219 4666 
L 3219 4153 
L 1081 4153 
L 1081 2816 
Q 1244 2928 1461 2984 
Q 1678 3041 1947 3041 
Q 2703 3041 3140 2622 
Q 3578 2203 3578 1478 
Q 3578 738 3136 323 
Q 2694 -91 1894 -91 
Q 1572 -91 1234 -12 
Q 897 66 544 225 
L 544 1131 
L 897 1131 
Q 925 688 1179 453 
Q 1434 219 1894 219 
Q 2388 219 2653 544 
Q 2919 869 2919 1478 
Q 2919 2084 2655 2407 
Q 2391 2731 1894 2731 
Q 1613 2731 1398 2631 
Q 1184 2531 1019 2322 
L 750 2322 
L 750 4666 
L 3219 4666 
z
" transform="scale(0.015625)"/>
       </defs>
       <use xlink:href="#DejaVuSerif-35"/>
      </g>
     </g>
    </g>
    <g id="ytick_3">
     <g id="text_10">
      <!-- 10 -->
      <g transform="translate(36.605 218.800528) scale(0.1 -0.1)">
       <defs>
        <path id="DejaVuSerif-31" d="M 909 0 
L 909 331 
L 1722 331 
L 1722 4213 
L 781 3603 
L 781 4013 
L 1919 4750 
L 2350 4750 
L 2350 331 
L 3163 331 
L 3163 0 
L 909 0 
z
" transform="scale(0.015625)"/>
       </defs>
       <use xlink:href="#DejaVuSerif-31"/>
       <use xlink:href="#DejaVuSerif-30" x="63.623047"/>
      </g>
     </g>
    </g>
    <g id="ytick_4">
     <g id="text_11">
      <!-- 15 -->
      <g transform="translate(36.605 152.156164) scale(0.1 -0.1)">
       <use xlink:href="#DejaVuSerif-31"/>
       <use xlink:href="#DejaVuSerif-35" x="63.623047"/>
      </g>
     </g>
    </g>
    <g id="ytick_5">
     <g id="text_12">
      <!-- 20 -->
      <g transform="translate(36.605 85.511801) scale(0.1 -0.1)">
       <defs>
        <path id="DejaVuSerif-32" d="M 819 3553 
L 469 3553 
L 469 4384 
Q 803 4563 1142 4656 
Q 1481 4750 1806 4750 
Q 2534 4750 2956 4397 
Q 3378 4044 3378 3438 
Q 3378 2753 2422 1800 
Q 2347 1728 2309 1691 
L 1131 513 
L 3078 513 
L 3078 1088 
L 3444 1088 
L 3444 0 
L 434 0 
L 434 341 
L 1850 1753 
Q 2319 2222 2519 2614 
Q 2719 3006 2719 3438 
Q 2719 3909 2473 4175 
Q 2228 4441 1797 4441 
Q 1350 4441 1106 4219 
Q 863 3997 819 3553 
z
" transform="scale(0.015625)"/>
       </defs>
       <use xlink:href="#DejaVuSerif-32"/>
       <use xlink:href="#DejaVuSerif-30" x="63.623047"/>
      </g>
     </g>
    </g>
    <g id="ytick_6">
     <g id="text_13">
      <!-- 25 -->
      <g transform="translate(36.605 18.867437) scale(0.1 -0.1)">
       <use xlink:href="#DejaVuSerif-32"/>
       <use xlink:href="#DejaVuSerif-35" x="63.623047"/>
      </g>
     </g>
    </g>
    <g id="text_14">
     <!-- % evaluated as relevant -->
     <g transform="translate(23.2775 292.19925) rotate(-90) scale(0.16 -0.16)">
      <defs>
       <path id="DejaVuSerif-25" d="M 1434 4459 
Q 1159 4459 1004 4200 
Q 850 3941 850 3475 
Q 850 3016 1008 2753 
Q 1166 2491 1434 2491 
Q 1700 2491 1854 2752 
Q 2009 3013 2009 3475 
Q 2009 3938 1854 4198 
Q 1700 4459 1434 4459 
z
M 4653 2169 
Q 4381 2169 4226 1906 
Q 4072 1644 4072 1178 
Q 4072 719 4228 458 
Q 4384 197 4653 197 
Q 4922 197 5075 458 
Q 5228 719 5228 1178 
Q 5228 1641 5073 1905 
Q 4919 2169 4653 2169 
z
M 4653 2450 
Q 5147 2450 5437 2106 
Q 5728 1763 5728 1178 
Q 5728 594 5436 251 
Q 5144 -91 4653 -91 
Q 4153 -91 3862 251 
Q 3572 594 3572 1178 
Q 3572 1766 3864 2108 
Q 4156 2450 4653 2450 
z
M 4263 4750 
L 4738 4750 
L 1819 -91 
L 1344 -91 
L 4263 4750 
z
M 1428 4750 
Q 1922 4750 2215 4408 
Q 2509 4066 2509 3481 
Q 2509 2891 2217 2550 
Q 1925 2209 1428 2209 
Q 931 2209 642 2551 
Q 353 2894 353 3481 
Q 353 4063 643 4406 
Q 934 4750 1428 4750 
z
" transform="scale(0.015625)"/>
       <path id="DejaVuSerif-20" transform="scale(0.015625)"/>
       <path id="DejaVuSerif-76" d="M 1581 0 
L 359 2988 
L -19 2988 
L -19 3322 
L 1509 3322 
L 1509 2988 
L 978 2988 
L 1913 703 
L 2847 2988 
L 2350 2988 
L 2350 3322 
L 3597 3322 
L 3597 2988 
L 3225 2988 
L 2003 0 
L 1581 0 
z
" transform="scale(0.015625)"/>
      </defs>
      <use xlink:href="#DejaVuSerif-25"/>
      <use xlink:href="#DejaVuSerif-20" x="95.019531"/>
      <use xlink:href="#DejaVuSerif-65" x="126.806641"/>
      <use xlink:href="#DejaVuSerif-76" x="185.986328"/>
      <use xlink:href="#DejaVuSerif-61" x="242.480469"/>
      <use xlink:href="#DejaVuSerif-6c" x="302.099609"/>
      <use xlink:href="#DejaVuSerif-75" x="334.082031"/>
      <use xlink:href="#DejaVuSerif-61" x="398.486328"/>
      <use xlink:href="#DejaVuSerif-74" x="458.105469"/>
      <use xlink:href="#DejaVuSerif-65" x="498.291016"/>
      <use xlink:href="#DejaVuSerif-64" x="557.470703"/>
      <use xlink:href="#DejaVuSerif-20" x="621.484375"/>
      <use xlink:href="#DejaVuSerif-61" x="653.271484"/>
      <use xlink:href="#DejaVuSerif-73" x="712.890625"/>
      <use xlink:href="#DejaVuSerif-20" x="764.208984"/>
      <use xlink:href="#DejaVuSerif-72" x="795.996094"/>
      <use xlink:href="#DejaVuSerif-65" x="843.798828"/>
      <use xlink:href="#DejaVuSerif-6c" x="902.978516"/>
      <use xlink:href="#DejaVuSerif-65" x="934.960938"/>
      <use xlink:href="#DejaVuSerif-76" x="994.140625"/>
      <use xlink:href="#DejaVuSerif-61" x="1050.634766"/>
      <use xlink:href="#DejaVuSerif-6e" x="1110.253906"/>
      <use xlink:href="#DejaVuSerif-74" x="1174.658203"/>
     </g>
    </g>
   </g>
   <g id="patch_27">
    <path d="M 56.33 378.28 
L 56.33 11.736 
" style="fill: none; stroke: #000000; stroke-width: 0.8; stroke-linejoin: miter; stroke-linecap: square"/>
   </g>
   <g id="patch_28">
    <path d="M 56.33 378.28 
L 709.2 378.28 
" style="fill: none; stroke: #000000; stroke-width: 0.8; stroke-linejoin: miter; stroke-linecap: square"/>
   </g>
   <g id="legend_1">
    <g id="patch_29">
     <path d="M 63.33 78.4485 
L 125.212813 78.4485 
Q 127.212813 78.4485 127.212813 76.4485 
L 127.212813 18.736 
Q 127.212813 16.736 125.212813 16.736 
L 63.33 16.736 
Q 61.33 16.736 61.33 18.736 
L 61.33 76.4485 
Q 61.33 78.4485 63.33 78.4485 
z
" style="fill: #ffffff; opacity: 0.8; stroke: #cccccc; stroke-linejoin: miter"/>
    </g>
    <g id="patch_30">
     <path d="M 65.33 28.334438 
L 85.33 28.334438 
L 85.33 21.334438 
L 65.33 21.334438 
z
" style="fill: #1f77b4"/>
    </g>
    <g id="text_15">
     <!-- c=0.0 -->
     <g transform="translate(93.33 28.334438) scale(0.1 -0.1)">
      <defs>
       <path id="DejaVuSerif-3d" d="M 678 2894 
L 4684 2894 
L 4684 2394 
L 678 2394 
L 678 2894 
z
M 678 1619 
L 4684 1619 
L 4684 1119 
L 678 1119 
L 678 1619 
z
" transform="scale(0.015625)"/>
       <path id="DejaVuSerif-2e" d="M 603 325 
Q 603 500 722 622 
Q 841 744 1019 744 
Q 1191 744 1312 622 
Q 1434 500 1434 325 
Q 1434 153 1312 31 
Q 1191 -91 1019 -91 
Q 841 -91 722 29 
Q 603 150 603 325 
z
" transform="scale(0.015625)"/>
      </defs>
      <use xlink:href="#DejaVuSerif-63"/>
      <use xlink:href="#DejaVuSerif-3d" x="56.005859"/>
      <use xlink:href="#DejaVuSerif-30" x="139.794922"/>
      <use xlink:href="#DejaVuSerif-2e" x="203.417969"/>
      <use xlink:href="#DejaVuSerif-30" x="235.205078"/>
     </g>
    </g>
    <g id="patch_31">
     <path d="M 65.33 43.012563 
L 85.33 43.012563 
L 85.33 36.012563 
L 65.33 36.012563 
z
" style="fill: #ff7f0e"/>
    </g>
    <g id="text_16">
     <!-- c=0.5 -->
     <g transform="translate(93.33 43.012563) scale(0.1 -0.1)">
      <use xlink:href="#DejaVuSerif-63"/>
      <use xlink:href="#DejaVuSerif-3d" x="56.005859"/>
      <use xlink:href="#DejaVuSerif-30" x="139.794922"/>
      <use xlink:href="#DejaVuSerif-2e" x="203.417969"/>
      <use xlink:href="#DejaVuSerif-35" x="235.205078"/>
     </g>
    </g>
    <g id="patch_32">
     <path d="M 65.33 57.690688 
L 85.33 57.690688 
L 85.33 50.690688 
L 65.33 50.690688 
z
" style="fill: #2ca02c"/>
    </g>
    <g id="text_17">
     <!-- c=1.0 -->
     <g transform="translate(93.33 57.690688) scale(0.1 -0.1)">
      <use xlink:href="#DejaVuSerif-63"/>
      <use xlink:href="#DejaVuSerif-3d" x="56.005859"/>
      <use xlink:href="#DejaVuSerif-31" x="139.794922"/>
      <use xlink:href="#DejaVuSerif-2e" x="203.417969"/>
      <use xlink:href="#DejaVuSerif-30" x="235.205078"/>
     </g>
    </g>
    <g id="patch_33">
     <path d="M 65.33 72.368813 
L 85.33 72.368813 
L 85.33 65.368813 
L 65.33 65.368813 
z
" style="fill: #d62728"/>
    </g>
    <g id="text_18">
     <!-- c=2.0 -->
     <g transform="translate(93.33 72.368813) scale(0.1 -0.1)">
      <use xlink:href="#DejaVuSerif-63"/>
      <use xlink:href="#DejaVuSerif-3d" x="56.005859"/>
      <use xlink:href="#DejaVuSerif-32" x="139.794922"/>
      <use xlink:href="#DejaVuSerif-2e" x="203.417969"/>
      <use xlink:href="#DejaVuSerif-30" x="235.205078"/>
     </g>
    </g>
   </g>
  </g>
 </g>
 <defs>
  <clipPath id="p7e8a2520f5">
   <rect x="56.33" y="11.736" width="652.87" height="366.544"/>
  </clipPath>
 </defs>
</svg>
